<mxfile host="app.diagrams.net" agent="Mozilla/5.0 (Windows NT 10.0; Win64; x64) AppleWebKit/537.36 (KHTML, like Gecko) Chrome/130.0.0.0 Safari/537.36" version="24.8.3">
  <diagram name="학사관리-개념적모델링" id="8UJT5-Gdw5cyBBTEH6aJ">
    <mxGraphModel dx="606" dy="732" grid="1" gridSize="10" guides="1" tooltips="1" connect="1" arrows="1" fold="1" page="1" pageScale="1" pageWidth="827" pageHeight="1169" math="0" shadow="0">
      <root>
        <mxCell id="0" />
        <mxCell id="1" parent="0" />
        <mxCell id="pNxn_mAyNOOxfGAxsr0X-4" value="&lt;u&gt;교수코드&lt;/u&gt;" style="ellipse;whiteSpace=wrap;html=1;" vertex="1" parent="1">
          <mxGeometry x="80" y="270" width="90" height="50" as="geometry" />
        </mxCell>
        <mxCell id="pNxn_mAyNOOxfGAxsr0X-5" value="교수" style="rounded=0;whiteSpace=wrap;html=1;" vertex="1" parent="1">
          <mxGeometry x="230" y="320" width="90" height="40" as="geometry" />
        </mxCell>
        <mxCell id="pNxn_mAyNOOxfGAxsr0X-6" value="교수이름" style="ellipse;whiteSpace=wrap;html=1;" vertex="1" parent="1">
          <mxGeometry x="80" y="360" width="90" height="50" as="geometry" />
        </mxCell>
        <mxCell id="pNxn_mAyNOOxfGAxsr0X-7" value="" style="endArrow=none;html=1;rounded=0;entryX=1;entryY=0.5;entryDx=0;entryDy=0;exitX=0;exitY=0.5;exitDx=0;exitDy=0;" edge="1" parent="1" source="pNxn_mAyNOOxfGAxsr0X-5" target="pNxn_mAyNOOxfGAxsr0X-4">
          <mxGeometry width="50" height="50" relative="1" as="geometry">
            <mxPoint x="250" y="390" as="sourcePoint" />
            <mxPoint x="300" y="340" as="targetPoint" />
          </mxGeometry>
        </mxCell>
        <mxCell id="pNxn_mAyNOOxfGAxsr0X-8" value="" style="endArrow=none;html=1;rounded=0;entryX=1;entryY=0.5;entryDx=0;entryDy=0;exitX=0;exitY=0.5;exitDx=0;exitDy=0;" edge="1" parent="1" source="pNxn_mAyNOOxfGAxsr0X-5" target="pNxn_mAyNOOxfGAxsr0X-6">
          <mxGeometry width="50" height="50" relative="1" as="geometry">
            <mxPoint x="240" y="350" as="sourcePoint" />
            <mxPoint x="180" y="275" as="targetPoint" />
          </mxGeometry>
        </mxCell>
        <mxCell id="pNxn_mAyNOOxfGAxsr0X-9" value="" style="endArrow=none;html=1;rounded=0;entryX=0.5;entryY=1;entryDx=0;entryDy=0;exitX=0.5;exitY=0;exitDx=0;exitDy=0;" edge="1" parent="1" source="pNxn_mAyNOOxfGAxsr0X-10" target="pNxn_mAyNOOxfGAxsr0X-5">
          <mxGeometry width="50" height="50" relative="1" as="geometry">
            <mxPoint x="275" y="470" as="sourcePoint" />
            <mxPoint x="180" y="275" as="targetPoint" />
          </mxGeometry>
        </mxCell>
        <mxCell id="pNxn_mAyNOOxfGAxsr0X-10" value="소속" style="rhombus;whiteSpace=wrap;html=1;" vertex="1" parent="1">
          <mxGeometry x="235" y="430" width="80" height="80" as="geometry" />
        </mxCell>
        <mxCell id="pNxn_mAyNOOxfGAxsr0X-11" value="&lt;u&gt;학과코드&lt;/u&gt;" style="ellipse;whiteSpace=wrap;html=1;" vertex="1" parent="1">
          <mxGeometry x="80" y="550" width="90" height="50" as="geometry" />
        </mxCell>
        <mxCell id="pNxn_mAyNOOxfGAxsr0X-12" value="학과" style="rounded=0;whiteSpace=wrap;html=1;" vertex="1" parent="1">
          <mxGeometry x="230" y="600" width="90" height="40" as="geometry" />
        </mxCell>
        <mxCell id="pNxn_mAyNOOxfGAxsr0X-13" value="학과명" style="ellipse;whiteSpace=wrap;html=1;" vertex="1" parent="1">
          <mxGeometry x="80" y="640" width="90" height="50" as="geometry" />
        </mxCell>
        <mxCell id="pNxn_mAyNOOxfGAxsr0X-14" value="" style="endArrow=none;html=1;rounded=0;entryX=1;entryY=0.5;entryDx=0;entryDy=0;exitX=0;exitY=0.5;exitDx=0;exitDy=0;" edge="1" parent="1" source="pNxn_mAyNOOxfGAxsr0X-12" target="pNxn_mAyNOOxfGAxsr0X-11">
          <mxGeometry width="50" height="50" relative="1" as="geometry">
            <mxPoint x="250" y="670" as="sourcePoint" />
            <mxPoint x="300" y="620" as="targetPoint" />
          </mxGeometry>
        </mxCell>
        <mxCell id="pNxn_mAyNOOxfGAxsr0X-15" value="" style="endArrow=none;html=1;rounded=0;entryX=1;entryY=0.5;entryDx=0;entryDy=0;exitX=0;exitY=0.5;exitDx=0;exitDy=0;" edge="1" parent="1" source="pNxn_mAyNOOxfGAxsr0X-12" target="pNxn_mAyNOOxfGAxsr0X-13">
          <mxGeometry width="50" height="50" relative="1" as="geometry">
            <mxPoint x="240" y="630" as="sourcePoint" />
            <mxPoint x="180" y="555" as="targetPoint" />
          </mxGeometry>
        </mxCell>
        <mxCell id="pNxn_mAyNOOxfGAxsr0X-16" value="과목" style="rounded=0;whiteSpace=wrap;html=1;" vertex="1" parent="1">
          <mxGeometry x="567" y="320" width="90" height="40" as="geometry" />
        </mxCell>
        <mxCell id="pNxn_mAyNOOxfGAxsr0X-17" value="&lt;u&gt;과목코드&lt;/u&gt;" style="ellipse;whiteSpace=wrap;html=1;" vertex="1" parent="1">
          <mxGeometry x="457" y="190" width="90" height="50" as="geometry" />
        </mxCell>
        <mxCell id="pNxn_mAyNOOxfGAxsr0X-18" value="과목명" style="ellipse;whiteSpace=wrap;html=1;" vertex="1" parent="1">
          <mxGeometry x="557" y="190" width="90" height="50" as="geometry" />
        </mxCell>
        <mxCell id="pNxn_mAyNOOxfGAxsr0X-19" value="" style="endArrow=none;html=1;rounded=0;entryX=0.5;entryY=0;entryDx=0;entryDy=0;exitX=0.5;exitY=1;exitDx=0;exitDy=0;" edge="1" parent="1" target="pNxn_mAyNOOxfGAxsr0X-16" source="pNxn_mAyNOOxfGAxsr0X-17">
          <mxGeometry width="50" height="50" relative="1" as="geometry">
            <mxPoint x="667" y="435" as="sourcePoint" />
            <mxPoint x="607" y="390" as="targetPoint" />
          </mxGeometry>
        </mxCell>
        <mxCell id="pNxn_mAyNOOxfGAxsr0X-20" value="" style="endArrow=none;html=1;rounded=0;entryX=1;entryY=0.5;entryDx=0;entryDy=0;exitX=0;exitY=0.5;exitDx=0;exitDy=0;" edge="1" parent="1" target="pNxn_mAyNOOxfGAxsr0X-5" source="pNxn_mAyNOOxfGAxsr0X-26">
          <mxGeometry width="50" height="50" relative="1" as="geometry">
            <mxPoint x="390" y="340" as="sourcePoint" />
            <mxPoint x="370" y="345" as="targetPoint" />
          </mxGeometry>
        </mxCell>
        <mxCell id="pNxn_mAyNOOxfGAxsr0X-21" value="시작일" style="ellipse;whiteSpace=wrap;html=1;" vertex="1" parent="1">
          <mxGeometry x="667" y="190" width="90" height="50" as="geometry" />
        </mxCell>
        <mxCell id="pNxn_mAyNOOxfGAxsr0X-22" value="종료일" style="ellipse;whiteSpace=wrap;html=1;" vertex="1" parent="1">
          <mxGeometry x="737" y="240" width="90" height="50" as="geometry" />
        </mxCell>
        <mxCell id="pNxn_mAyNOOxfGAxsr0X-23" value="" style="endArrow=none;html=1;rounded=0;entryX=0.5;entryY=0;entryDx=0;entryDy=0;exitX=0.5;exitY=1;exitDx=0;exitDy=0;" edge="1" parent="1" source="pNxn_mAyNOOxfGAxsr0X-18" target="pNxn_mAyNOOxfGAxsr0X-16">
          <mxGeometry width="50" height="50" relative="1" as="geometry">
            <mxPoint x="602" y="280" as="sourcePoint" />
            <mxPoint x="622" y="330" as="targetPoint" />
          </mxGeometry>
        </mxCell>
        <mxCell id="pNxn_mAyNOOxfGAxsr0X-24" value="" style="endArrow=none;html=1;rounded=0;entryX=0;entryY=1;entryDx=0;entryDy=0;exitX=0.5;exitY=0;exitDx=0;exitDy=0;" edge="1" parent="1" source="pNxn_mAyNOOxfGAxsr0X-16" target="pNxn_mAyNOOxfGAxsr0X-21">
          <mxGeometry width="50" height="50" relative="1" as="geometry">
            <mxPoint x="612" y="290" as="sourcePoint" />
            <mxPoint x="632" y="340" as="targetPoint" />
          </mxGeometry>
        </mxCell>
        <mxCell id="pNxn_mAyNOOxfGAxsr0X-25" value="" style="endArrow=none;html=1;rounded=0;entryX=0;entryY=1;entryDx=0;entryDy=0;exitX=0.5;exitY=0;exitDx=0;exitDy=0;" edge="1" parent="1" source="pNxn_mAyNOOxfGAxsr0X-16" target="pNxn_mAyNOOxfGAxsr0X-22">
          <mxGeometry width="50" height="50" relative="1" as="geometry">
            <mxPoint x="622" y="300" as="sourcePoint" />
            <mxPoint x="642" y="350" as="targetPoint" />
          </mxGeometry>
        </mxCell>
        <mxCell id="pNxn_mAyNOOxfGAxsr0X-26" value="강의" style="rhombus;whiteSpace=wrap;html=1;" vertex="1" parent="1">
          <mxGeometry x="400" y="300" width="80" height="80" as="geometry" />
        </mxCell>
        <mxCell id="pNxn_mAyNOOxfGAxsr0X-28" value="" style="endArrow=none;html=1;rounded=0;entryX=1;entryY=0.5;entryDx=0;entryDy=0;exitX=0;exitY=0.5;exitDx=0;exitDy=0;" edge="1" parent="1" source="pNxn_mAyNOOxfGAxsr0X-16" target="pNxn_mAyNOOxfGAxsr0X-26">
          <mxGeometry width="50" height="50" relative="1" as="geometry">
            <mxPoint x="410" y="350" as="sourcePoint" />
            <mxPoint x="330" y="350" as="targetPoint" />
          </mxGeometry>
        </mxCell>
        <mxCell id="pNxn_mAyNOOxfGAxsr0X-30" value="" style="endArrow=none;html=1;rounded=0;entryX=0.5;entryY=1;entryDx=0;entryDy=0;exitX=0.5;exitY=0;exitDx=0;exitDy=0;" edge="1" parent="1" source="pNxn_mAyNOOxfGAxsr0X-12" target="pNxn_mAyNOOxfGAxsr0X-10">
          <mxGeometry width="50" height="50" relative="1" as="geometry">
            <mxPoint x="285" y="440" as="sourcePoint" />
            <mxPoint x="285" y="370" as="targetPoint" />
          </mxGeometry>
        </mxCell>
        <mxCell id="pNxn_mAyNOOxfGAxsr0X-31" value="&lt;u&gt;학번&lt;/u&gt;" style="ellipse;whiteSpace=wrap;html=1;" vertex="1" parent="1">
          <mxGeometry x="690" y="535" width="90" height="50" as="geometry" />
        </mxCell>
        <mxCell id="pNxn_mAyNOOxfGAxsr0X-32" value="학생" style="rounded=0;whiteSpace=wrap;html=1;" vertex="1" parent="1">
          <mxGeometry x="567" y="600" width="90" height="40" as="geometry" />
        </mxCell>
        <mxCell id="pNxn_mAyNOOxfGAxsr0X-33" value="이름" style="ellipse;whiteSpace=wrap;html=1;" vertex="1" parent="1">
          <mxGeometry x="690" y="630" width="90" height="50" as="geometry" />
        </mxCell>
        <mxCell id="pNxn_mAyNOOxfGAxsr0X-34" value="" style="endArrow=none;html=1;rounded=0;entryX=1;entryY=0.5;entryDx=0;entryDy=0;exitX=0;exitY=1;exitDx=0;exitDy=0;" edge="1" parent="1" source="pNxn_mAyNOOxfGAxsr0X-31" target="pNxn_mAyNOOxfGAxsr0X-32">
          <mxGeometry width="50" height="50" relative="1" as="geometry">
            <mxPoint x="667" y="740" as="sourcePoint" />
            <mxPoint x="760" y="730" as="targetPoint" />
          </mxGeometry>
        </mxCell>
        <mxCell id="pNxn_mAyNOOxfGAxsr0X-35" value="" style="endArrow=none;html=1;rounded=0;entryX=0;entryY=0.5;entryDx=0;entryDy=0;exitX=1;exitY=0.5;exitDx=0;exitDy=0;" edge="1" parent="1" source="pNxn_mAyNOOxfGAxsr0X-32" target="pNxn_mAyNOOxfGAxsr0X-33">
          <mxGeometry width="50" height="50" relative="1" as="geometry">
            <mxPoint x="667" y="740" as="sourcePoint" />
            <mxPoint x="640" y="665" as="targetPoint" />
          </mxGeometry>
        </mxCell>
        <mxCell id="pNxn_mAyNOOxfGAxsr0X-36" value="" style="endArrow=none;html=1;rounded=0;entryX=0.5;entryY=1;entryDx=0;entryDy=0;exitX=0.5;exitY=0;exitDx=0;exitDy=0;" edge="1" parent="1" source="pNxn_mAyNOOxfGAxsr0X-37" target="pNxn_mAyNOOxfGAxsr0X-16">
          <mxGeometry width="50" height="50" relative="1" as="geometry">
            <mxPoint x="527" y="534" as="sourcePoint" />
            <mxPoint x="440" y="534" as="targetPoint" />
          </mxGeometry>
        </mxCell>
        <mxCell id="pNxn_mAyNOOxfGAxsr0X-37" value="수강" style="rhombus;whiteSpace=wrap;html=1;" vertex="1" parent="1">
          <mxGeometry x="572" y="430" width="80" height="80" as="geometry" />
        </mxCell>
        <mxCell id="pNxn_mAyNOOxfGAxsr0X-38" value="" style="endArrow=none;html=1;rounded=0;entryX=0.5;entryY=1;entryDx=0;entryDy=0;exitX=0.5;exitY=0;exitDx=0;exitDy=0;" edge="1" parent="1" source="pNxn_mAyNOOxfGAxsr0X-32" target="pNxn_mAyNOOxfGAxsr0X-37">
          <mxGeometry width="50" height="50" relative="1" as="geometry">
            <mxPoint x="622" y="440" as="sourcePoint" />
            <mxPoint x="622" y="370" as="targetPoint" />
          </mxGeometry>
        </mxCell>
        <mxCell id="pNxn_mAyNOOxfGAxsr0X-39" value="소속" style="rhombus;whiteSpace=wrap;html=1;" vertex="1" parent="1">
          <mxGeometry x="400" y="580" width="80" height="80" as="geometry" />
        </mxCell>
        <mxCell id="pNxn_mAyNOOxfGAxsr0X-40" value="" style="endArrow=none;html=1;rounded=0;entryX=0;entryY=0.5;entryDx=0;entryDy=0;exitX=1;exitY=0.5;exitDx=0;exitDy=0;" edge="1" parent="1" source="pNxn_mAyNOOxfGAxsr0X-39" target="pNxn_mAyNOOxfGAxsr0X-32">
          <mxGeometry width="50" height="50" relative="1" as="geometry">
            <mxPoint x="622" y="610" as="sourcePoint" />
            <mxPoint x="622" y="520" as="targetPoint" />
          </mxGeometry>
        </mxCell>
        <mxCell id="pNxn_mAyNOOxfGAxsr0X-41" value="" style="endArrow=none;html=1;rounded=0;entryX=1;entryY=0.5;entryDx=0;entryDy=0;exitX=0;exitY=0.5;exitDx=0;exitDy=0;" edge="1" parent="1" source="pNxn_mAyNOOxfGAxsr0X-39" target="pNxn_mAyNOOxfGAxsr0X-12">
          <mxGeometry width="50" height="50" relative="1" as="geometry">
            <mxPoint x="632" y="620" as="sourcePoint" />
            <mxPoint x="632" y="530" as="targetPoint" />
          </mxGeometry>
        </mxCell>
        <mxCell id="pNxn_mAyNOOxfGAxsr0X-42" value="N" style="text;html=1;align=center;verticalAlign=middle;whiteSpace=wrap;rounded=0;" vertex="1" parent="1">
          <mxGeometry x="597" y="510" width="60" height="30" as="geometry" />
        </mxCell>
        <mxCell id="pNxn_mAyNOOxfGAxsr0X-43" value="M" style="text;html=1;align=center;verticalAlign=middle;whiteSpace=wrap;rounded=0;" vertex="1" parent="1">
          <mxGeometry x="597" y="400" width="60" height="30" as="geometry" />
        </mxCell>
        <mxCell id="pNxn_mAyNOOxfGAxsr0X-44" value="1" style="text;html=1;align=center;verticalAlign=middle;whiteSpace=wrap;rounded=0;" vertex="1" parent="1">
          <mxGeometry x="361" y="310" width="60" height="30" as="geometry" />
        </mxCell>
        <mxCell id="pNxn_mAyNOOxfGAxsr0X-45" value="N" style="text;html=1;align=center;verticalAlign=middle;whiteSpace=wrap;rounded=0;" vertex="1" parent="1">
          <mxGeometry x="464" y="310" width="60" height="30" as="geometry" />
        </mxCell>
        <mxCell id="pNxn_mAyNOOxfGAxsr0X-46" value="N" style="text;html=1;align=center;verticalAlign=middle;whiteSpace=wrap;rounded=0;" vertex="1" parent="1">
          <mxGeometry x="235" y="505" width="60" height="30" as="geometry" />
        </mxCell>
        <mxCell id="pNxn_mAyNOOxfGAxsr0X-47" value="1" style="text;html=1;align=center;verticalAlign=middle;whiteSpace=wrap;rounded=0;" vertex="1" parent="1">
          <mxGeometry x="235" y="395" width="60" height="30" as="geometry" />
        </mxCell>
        <mxCell id="pNxn_mAyNOOxfGAxsr0X-48" value="1" style="text;html=1;align=center;verticalAlign=middle;whiteSpace=wrap;rounded=0;" vertex="1" parent="1">
          <mxGeometry x="360" y="585" width="60" height="30" as="geometry" />
        </mxCell>
        <mxCell id="pNxn_mAyNOOxfGAxsr0X-49" value="N" style="text;html=1;align=center;verticalAlign=middle;whiteSpace=wrap;rounded=0;" vertex="1" parent="1">
          <mxGeometry x="460" y="585" width="60" height="30" as="geometry" />
        </mxCell>
        <mxCell id="pNxn_mAyNOOxfGAxsr0X-50" value="" style="endArrow=none;html=1;rounded=0;entryX=1;entryY=0.5;entryDx=0;entryDy=0;" edge="1" parent="1" target="pNxn_mAyNOOxfGAxsr0X-37">
          <mxGeometry width="50" height="50" relative="1" as="geometry">
            <mxPoint x="700" y="420" as="sourcePoint" />
            <mxPoint x="622" y="520" as="targetPoint" />
          </mxGeometry>
        </mxCell>
        <mxCell id="pNxn_mAyNOOxfGAxsr0X-52" value="수강번호" style="ellipse;whiteSpace=wrap;html=1;" vertex="1" parent="1">
          <mxGeometry x="690" y="410" width="90" height="50" as="geometry" />
        </mxCell>
        <mxCell id="pNxn_mAyNOOxfGAxsr0X-53" value="학점" style="ellipse;whiteSpace=wrap;html=1;" vertex="1" parent="1">
          <mxGeometry x="690" y="470" width="90" height="50" as="geometry" />
        </mxCell>
        <mxCell id="pNxn_mAyNOOxfGAxsr0X-54" value="" style="endArrow=none;html=1;rounded=0;entryX=1;entryY=0.5;entryDx=0;entryDy=0;exitX=0;exitY=0.5;exitDx=0;exitDy=0;" edge="1" parent="1" source="pNxn_mAyNOOxfGAxsr0X-53" target="pNxn_mAyNOOxfGAxsr0X-37">
          <mxGeometry width="50" height="50" relative="1" as="geometry">
            <mxPoint x="710" y="430" as="sourcePoint" />
            <mxPoint x="662" y="480" as="targetPoint" />
          </mxGeometry>
        </mxCell>
        <mxCell id="pNxn_mAyNOOxfGAxsr0X-55" value="&lt;u&gt;학번&lt;/u&gt;" style="ellipse;whiteSpace=wrap;html=1;" vertex="1" parent="1">
          <mxGeometry x="690" y="345" width="90" height="50" as="geometry" />
        </mxCell>
        <mxCell id="pNxn_mAyNOOxfGAxsr0X-57" value="" style="endArrow=none;html=1;rounded=0;entryX=1;entryY=0.5;entryDx=0;entryDy=0;exitX=0;exitY=0.5;exitDx=0;exitDy=0;" edge="1" parent="1" source="pNxn_mAyNOOxfGAxsr0X-55" target="pNxn_mAyNOOxfGAxsr0X-37">
          <mxGeometry width="50" height="50" relative="1" as="geometry">
            <mxPoint x="710" y="430" as="sourcePoint" />
            <mxPoint x="662" y="480" as="targetPoint" />
          </mxGeometry>
        </mxCell>
        <mxCell id="pNxn_mAyNOOxfGAxsr0X-58" value="1" style="text;html=1;align=center;verticalAlign=middle;whiteSpace=wrap;rounded=0;" vertex="1" parent="1">
          <mxGeometry x="592" y="360" width="60" height="30" as="geometry" />
        </mxCell>
        <mxCell id="pNxn_mAyNOOxfGAxsr0X-59" value="1" style="text;html=1;align=center;verticalAlign=middle;whiteSpace=wrap;rounded=0;" vertex="1" parent="1">
          <mxGeometry x="597" y="570" width="60" height="30" as="geometry" />
        </mxCell>
      </root>
    </mxGraphModel>
  </diagram>
</mxfile>
